<?xml version="1.0" encoding="utf-8"?>
<!-- Generator: Adobe Illustrator 17.0.0, SVG Export Plug-In . SVG Version: 6.00 Build 0)  -->
<!DOCTYPE svg PUBLIC "-//W3C//DTD SVG 1.1//EN" "http://www.w3.org/Graphics/SVG/1.1/DTD/svg11.dtd">
<svg version="1.1" id="Layer_1" xmlns="http://www.w3.org/2000/svg" xmlns:xlink="http://www.w3.org/1999/xlink" x="0px" y="0px"
	 width="82.15px" height="82.4px" viewBox="0 0 82.15 82.4" enable-background="new 0 0 82.15 82.4" xml:space="preserve">
<g id="whoiam">
    <path fill="#3A4266" d="M45.45,48.02c-0.89-0.14-0.91-2.58-0.91-2.58s2.61-2.58,3.18-6.06c1.53,0,2.48-3.69,0.94-4.99
	c0.06-1.37,1.97-10.74-7.67-10.74s-7.73,9.37-7.67,10.74c-1.53,1.3-0.59,4.99,0.94,4.99c0.57,3.48,3.18,6.06,3.18,6.06
	s-0.02,2.44-0.91,2.58C33.69,48.48,23,53.19,23,58.36h36C59,53.19,48.31,48.48,45.45,48.02L45.45,48.02z"/>
    <circle fill="none" stroke="#3A4266" stroke-width="2" stroke-miterlimit="10" cx="41" cy="41" r="40"/>
</g>
</svg>
